{"asset":{"generator":"3D Builder","version":"2.0"},"scene":0,"scenes":[{"nodes":[0]}],"nodes":[{"children":[1,2]},{"mesh":0,"matrix":[80.111785888671875,0,0,0,0,-9.5500690804328769E-6,-80.111778259277344,0,0,80.111778259277344,-9.5500690804328769E-6,0,-4.5346908569335938,2.4011094570159912,-5.1623988151550293,1]},{"mesh":1,"matrix":[80.111785888671875,0,0,0,0,-9.5500690804328769E-6,-80.111778259277344,0,0,80.111778259277344,-9.5500690804328769E-6,0,-4.5346908569335938,-4.3602861410363403E-7,-3.657672643661499,1]}],"meshes":[{"primitives":[{"attributes":{"POSITION":0},"mode":4,"indices":9,"material":0},{"attributes":{"POSITION":1,"TEXCOORD_0":5},"mode":4,"indices":10,"material":1},{"attributes":{"POSITION":2,"TEXCOORD_0":6},"mode":4,"indices":11,"material":1},{"attributes":{"POSITION":3,"TEXCOORD_0":7},"mode":4,"indices":12,"material":1},{"attributes":{"POSITION":4,"TEXCOORD_0":8},"mode":4,"indices":13,"material":1}]},{"primitives":[{"attributes":{"POSITION":14,"TEXCOORD_0":35},"mode":4,"indices":53,"material":1},{"attributes":{"POSITION":15,"TEXCOORD_0":36},"mode":4,"indices":54,"material":1},{"attributes":{"POSITION":16,"TEXCOORD_0":37},"mode":4,"indices":55,"material":1},{"attributes":{"POSITION":17,"TEXCOORD_0":38},"mode":4,"indices":56,"material":1},{"attributes":{"POSITION":18,"TEXCOORD_0":39},"mode":4,"indices":57,"material":1},{"attributes":{"POSITION":19,"TEXCOORD_0":40},"mode":4,"indices":58,"material":1},{"attributes":{"POSITION":20},"mode":4,"indices":59,"material":0},{"attributes":{"POSITION":21,"TEXCOORD_0":41},"mode":4,"indices":60,"material":1},{"attributes":{"POSITION":22,"TEXCOORD_0":42},"mode":4,"indices":61,"material":1},{"attributes":{"POSITION":23,"TEXCOORD_0":43},"mode":4,"indices":62,"material":1},{"attributes":{"POSITION":24,"TEXCOORD_0":44},"mode":4,"indices":63,"material":1},{"attributes":{"POSITION":25},"mode":4,"indices":64,"material":0},{"attributes":{"POSITION":26,"TEXCOORD_0":45},"mode":4,"indices":65,"material":1},{"attributes":{"POSITION":27,"TEXCOORD_0":46},"mode":4,"indices":66,"material":1},{"attributes":{"POSITION":28,"TEXCOORD_0":47},"mode":4,"indices":67,"material":1},{"attributes":{"POSITION":29,"TEXCOORD_0":48},"mode":4,"indices":68,"material":1},{"attributes":{"POSITION":30},"mode":4,"indices":69,"material":0},{"attributes":{"POSITION":31,"TEXCOORD_0":49},"mode":4,"indices":70,"material":1},{"attributes":{"POSITION":32,"TEXCOORD_0":50},"mode":4,"indices":71,"material":1},{"attributes":{"POSITION":33,"TEXCOORD_0":51},"mode":4,"indices":72,"material":1},{"attributes":{"POSITION":34,"TEXCOORD_0":52},"mode":4,"indices":73,"material":1}]}],"materials":[{"name":"BaseColor","pbrMetallicRoughness":{"baseColorFactor":[0.50288659334182739,0.50288659334182739,0.50288659334182739,1],"metallicFactor":0,"roughnessFactor":1},"alphaMode":"OPAQUE"},{"pbrMetallicRoughness":{"baseColorFactor":[1,1,1,1],"metallicFactor":0,"roughnessFactor":1,"baseColorTexture":{"index":0,"texCoord":0}},"alphaMode":"OPAQUE"}],"textures":[{"source":0,"sampler":0}],"images":[{"uri":"boss.png"}],"samplers":[{"magFilter":9729,"wrapS":10497,"wrapT":10497}],"accessors":[{"bufferView":0,"byteOffset":0,"count":8,"componentType":5126,"type":"VEC3","min":[-0.0098782824352383614,-0.009878283366560936,-0.029971998184919357],"max":[0.00987828429788351,0.0098782824352383614,0.029971998184919357]},{"bufferView":0,"byteOffset":96,"count":4,"componentType":5126,"type":"VEC3","min":[-0.0098782824352383614,0.0098782815039157867,-0.029971998184919357],"max":[0.0098782824352383614,0.0098782824352383614,0.029971998184919357]},{"bufferView":0,"byteOffset":144,"count":4,"componentType":5126,"type":"VEC3","min":[0.0098782824352383614,-0.0098782796412706375,-0.029971998184919357],"max":[0.00987828429788351,0.0098782824352383614,0.029971998184919357]},{"bufferView":0,"byteOffset":192,"count":4,"componentType":5126,"type":"VEC3","min":[-0.0098782824352383614,-0.009878283366560936,-0.029971998184919357],"max":[-0.0098782805725932121,0.0098782815039157867,0.029971998184919357]},{"bufferView":0,"byteOffset":240,"count":4,"componentType":5126,"type":"VEC3","min":[-0.0098782805725932121,-0.009878283366560936,-0.029971998184919357],"max":[0.00987828429788351,-0.0098782796412706375,0.029971998184919357]},{"bufferView":1,"byteOffset":0,"count":4,"componentType":5126,"type":"VEC2"},{"bufferView":1,"byteOffset":32,"count":4,"componentType":5126,"type":"VEC2"},{"bufferView":1,"byteOffset":64,"count":4,"componentType":5126,"type":"VEC2"},{"bufferView":1,"byteOffset":96,"count":4,"componentType":5126,"type":"VEC2"},{"bufferView":2,"byteOffset":0,"count":12,"componentType":5125,"type":"SCALAR"},{"bufferView":2,"byteOffset":48,"count":6,"componentType":5125,"type":"SCALAR"},{"bufferView":2,"byteOffset":72,"count":6,"componentType":5125,"type":"SCALAR"},{"bufferView":2,"byteOffset":96,"count":6,"componentType":5125,"type":"SCALAR"},{"bufferView":2,"byteOffset":120,"count":6,"componentType":5125,"type":"SCALAR"},{"bufferView":3,"byteOffset":0,"count":134,"componentType":5126,"type":"VEC3","min":[-0.017575308680534363,-0.1211295872926712,0.06984999030828476],"max":[0.13221539556980133,0.028661103919148445,0.06984999030828476]},{"bufferView":3,"byteOffset":1608,"count":134,"componentType":5126,"type":"VEC3","min":[-0.01757529005408287,-0.1211295872926712,0.059943996369838715],"max":[0.13221539556980133,-0.12112955003976822,0.06984999030828476]},{"bufferView":3,"byteOffset":3216,"count":130,"componentType":5126,"type":"VEC3","min":[0.13221538066864014,-0.12112955003976822,0.059943996369838715],"max":[0.13221539556980133,0.028661103919148445,0.06984999030828476]},{"bufferView":3,"byteOffset":4776,"count":122,"componentType":5126,"type":"VEC3","min":[-0.017575308680534363,0.028661098331212997,0.059943996369838715],"max":[0.13221538066864014,0.028661103919148445,0.06984999030828476]},{"bufferView":3,"byteOffset":6240,"count":160,"componentType":5126,"type":"VEC3","min":[-0.017575308680534363,-0.1211295872926712,0.059943996369838715],"max":[0.13221538066864014,0.028661103919148445,0.059943996369838715]},{"bufferView":3,"byteOffset":8160,"count":127,"componentType":5126,"type":"VEC3","min":[-0.017575308680534363,-0.1211295872926712,0.059943996369838715],"max":[-0.01757529005408287,0.028661098331212997,0.06984999030828476]},{"bufferView":3,"byteOffset":9684,"count":13,"componentType":5126,"type":"VEC3","min":[-0.017575304955244064,-0.1211295872926712,0],"max":[0.0021812613122165203,-0.10137301683425903,0.059943996369838715]},{"bufferView":3,"byteOffset":9840,"count":7,"componentType":5126,"type":"VEC3","min":[-0.017575303092598915,-0.1211295872926712,0],"max":[0.0021812613122165203,-0.1211295872926712,0.059943996369838715]},{"bufferView":3,"byteOffset":9924,"count":13,"componentType":5126,"type":"VEC3","min":[0.0021812592167407274,-0.1211295872926712,0],"max":[0.0021812613122165203,-0.10137301683425903,0.059943996369838715]},{"bufferView":3,"byteOffset":10080,"count":10,"componentType":5126,"type":"VEC3","min":[-0.017575304955244064,-0.10137301683425903,0],"max":[0.0021812592167407274,-0.10137301683425903,0.059943996369838715]},{"bufferView":3,"byteOffset":10200,"count":4,"componentType":5126,"type":"VEC3","min":[-0.017575304955244064,-0.1211295872926712,0],"max":[-0.017575303092598915,-0.10137301683425903,0.059943996369838715]},{"bufferView":3,"byteOffset":10248,"count":13,"componentType":5126,"type":"VEC3","min":[0.11245881766080856,-0.1211295872926712,0],"max":[0.13221539556980133,-0.10137301683425903,0.059943996369838715]},{"bufferView":3,"byteOffset":10404,"count":4,"componentType":5126,"type":"VEC3","min":[0.11245881766080856,-0.1211295872926712,0],"max":[0.13221539556980133,-0.1211295872926712,0.059943996369838715]},{"bufferView":3,"byteOffset":10452,"count":11,"componentType":5126,"type":"VEC3","min":[0.11245881766080856,-0.1211295872926712,0],"max":[0.11245881766080856,-0.10137301683425903,0.059943996369838715]},{"bufferView":3,"byteOffset":10584,"count":4,"componentType":5126,"type":"VEC3","min":[0.13221539556980133,-0.1211295872926712,0],"max":[0.13221539556980133,-0.10137301683425903,0.059943996369838715]},{"bufferView":3,"byteOffset":10632,"count":12,"componentType":5126,"type":"VEC3","min":[0.11245881766080856,-0.10137301683425903,0],"max":[0.13221539556980133,-0.10137301683425903,0.059943996369838715]},{"bufferView":3,"byteOffset":10776,"count":12,"componentType":5126,"type":"VEC3","min":[0.11245881766080856,0.0089045390486717224,0],"max":[0.13221539556980133,0.028661103919148445,0.059943996369838715]},{"bufferView":3,"byteOffset":10920,"count":4,"componentType":5126,"type":"VEC3","min":[0.13221539556980133,0.0089045427739620209,0],"max":[0.13221539556980133,0.028661103919148445,0.059943996369838715]},{"bufferView":3,"byteOffset":10968,"count":7,"componentType":5126,"type":"VEC3","min":[0.11245881766080856,0.0089045390486717224,0],"max":[0.13221539556980133,0.0089045427739620209,0.059943996369838715]},{"bufferView":3,"byteOffset":11052,"count":4,"componentType":5126,"type":"VEC3","min":[0.11245881766080856,0.028661103919148445,0],"max":[0.13221539556980133,0.028661103919148445,0.059943996369838715]},{"bufferView":3,"byteOffset":11100,"count":6,"componentType":5126,"type":"VEC3","min":[0.11245881766080856,0.0089045390486717224,0],"max":[0.11245881766080856,0.028661103919148445,0.059943996369838715]},{"bufferView":4,"byteOffset":0,"count":134,"componentType":5126,"type":"VEC2"},{"bufferView":4,"byteOffset":1072,"count":134,"componentType":5126,"type":"VEC2"},{"bufferView":4,"byteOffset":2144,"count":130,"componentType":5126,"type":"VEC2"},{"bufferView":4,"byteOffset":3184,"count":122,"componentType":5126,"type":"VEC2"},{"bufferView":4,"byteOffset":4160,"count":160,"componentType":5126,"type":"VEC2"},{"bufferView":4,"byteOffset":5440,"count":127,"componentType":5126,"type":"VEC2"},{"bufferView":4,"byteOffset":6456,"count":7,"componentType":5126,"type":"VEC2"},{"bufferView":4,"byteOffset":6512,"count":13,"componentType":5126,"type":"VEC2"},{"bufferView":4,"byteOffset":6616,"count":10,"componentType":5126,"type":"VEC2"},{"bufferView":4,"byteOffset":6696,"count":4,"componentType":5126,"type":"VEC2"},{"bufferView":4,"byteOffset":6728,"count":4,"componentType":5126,"type":"VEC2"},{"bufferView":4,"byteOffset":6760,"count":11,"componentType":5126,"type":"VEC2"},{"bufferView":4,"byteOffset":6848,"count":4,"componentType":5126,"type":"VEC2"},{"bufferView":4,"byteOffset":6880,"count":12,"componentType":5126,"type":"VEC2"},{"bufferView":4,"byteOffset":6976,"count":4,"componentType":5126,"type":"VEC2"},{"bufferView":4,"byteOffset":7008,"count":7,"componentType":5126,"type":"VEC2"},{"bufferView":4,"byteOffset":7064,"count":4,"componentType":5126,"type":"VEC2"},{"bufferView":4,"byteOffset":7096,"count":6,"componentType":5126,"type":"VEC2"},{"bufferView":5,"byteOffset":0,"count":600,"componentType":5125,"type":"SCALAR"},{"bufferView":5,"byteOffset":2400,"count":636,"componentType":5125,"type":"SCALAR"},{"bufferView":5,"byteOffset":4944,"count":624,"componentType":5125,"type":"SCALAR"},{"bufferView":5,"byteOffset":7440,"count":615,"componentType":5125,"type":"SCALAR"},{"bufferView":5,"byteOffset":9900,"count":630,"componentType":5125,"type":"SCALAR"},{"bufferView":5,"byteOffset":12420,"count":618,"componentType":5125,"type":"SCALAR"},{"bufferView":5,"byteOffset":14892,"count":36,"componentType":5125,"type":"SCALAR"},{"bufferView":5,"byteOffset":15036,"count":21,"componentType":5125,"type":"SCALAR"},{"bufferView":5,"byteOffset":15120,"count":21,"componentType":5125,"type":"SCALAR"},{"bufferView":5,"byteOffset":15204,"count":18,"componentType":5125,"type":"SCALAR"},{"bufferView":5,"byteOffset":15276,"count":6,"componentType":5125,"type":"SCALAR"},{"bufferView":5,"byteOffset":15300,"count":36,"componentType":5125,"type":"SCALAR"},{"bufferView":5,"byteOffset":15444,"count":6,"componentType":5125,"type":"SCALAR"},{"bufferView":5,"byteOffset":15468,"count":18,"componentType":5125,"type":"SCALAR"},{"bufferView":5,"byteOffset":15540,"count":6,"componentType":5125,"type":"SCALAR"},{"bufferView":5,"byteOffset":15564,"count":21,"componentType":5125,"type":"SCALAR"},{"bufferView":5,"byteOffset":15648,"count":39,"componentType":5125,"type":"SCALAR"},{"bufferView":5,"byteOffset":15804,"count":6,"componentType":5125,"type":"SCALAR"},{"bufferView":5,"byteOffset":15828,"count":18,"componentType":5125,"type":"SCALAR"},{"bufferView":5,"byteOffset":15900,"count":6,"componentType":5125,"type":"SCALAR"},{"bufferView":5,"byteOffset":15924,"count":21,"componentType":5125,"type":"SCALAR"}],"bufferViews":[{"buffer":0,"byteOffset":0,"byteLength":288,"byteStride":12,"target":34962},{"buffer":0,"byteOffset":288,"byteLength":128,"byteStride":8,"target":34962},{"buffer":0,"byteOffset":416,"byteLength":144,"target":34963},{"buffer":0,"byteOffset":560,"byteLength":11172,"byteStride":12,"target":34962},{"buffer":0,"byteOffset":11732,"byteLength":7144,"byteStride":8,"target":34962},{"buffer":0,"byteOffset":18876,"byteLength":16008,"target":34963}],"buffers":[{"byteLength":34884,"uri":"table.bin"}]}