{"asset":{"generator":"3D Builder","version":"2.0"},"scene":0,"scenes":[{"nodes":[0]}],"nodes":[{"children":[1,2,3,4,5,6]},{"mesh":0,"matrix":[39.370079040527344,0,0,0,0,-4.6932791519793682E-6,-39.370075225830078,0,0,39.370075225830078,-4.6932791519793682E-6,0,-922.613525390625,-1124.3941650390625,391.05538940429688,1]},{"mesh":1,"matrix":[39.370079040527344,0,0,0,0,-4.6932791519793682E-6,-39.370075225830078,0,0,39.370075225830078,-4.6932791519793682E-6,0,-922.613525390625,-1124.3941650390625,391.05538940429688,1]},{"mesh":2,"matrix":[39.370079040527344,0,0,0,0,-4.6932791519793682E-6,-39.370075225830078,0,0,39.370075225830078,-4.6932791519793682E-6,0,-922.613525390625,-1124.3941650390625,391.05538940429688,1]},{"mesh":3,"matrix":[39.370079040527344,0,0,0,0,-4.6932791519793682E-6,-39.370075225830078,0,0,39.370075225830078,-4.6932791519793682E-6,0,-922.613525390625,-1124.3941650390625,391.05538940429688,1]},{"mesh":4,"matrix":[39.370079040527344,0,0,0,0,-4.6932791519793682E-6,-39.370075225830078,0,0,39.370075225830078,-4.6932791519793682E-6,0,-922.613525390625,-1124.3941650390625,391.05538940429688,1]},{"mesh":5,"matrix":[39.370079040527344,0,0,0,0,-4.6932791519793682E-6,-39.370075225830078,0,0,39.370075225830078,-4.6932791519793682E-6,0,-922.613525390625,-1124.3941650390625,391.05538940429688,1]}],"meshes":[{"primitives":[{"attributes":{"POSITION":0,"TEXCOORD_0":1},"mode":4,"indices":2,"material":0}]},{"primitives":[{"attributes":{"POSITION":3,"TEXCOORD_0":4},"mode":4,"indices":5,"material":0}]},{"primitives":[{"attributes":{"POSITION":6,"TEXCOORD_0":7},"mode":4,"indices":8,"material":0}]},{"primitives":[{"attributes":{"POSITION":9,"TEXCOORD_0":10},"mode":4,"indices":11,"material":0}]},{"primitives":[{"attributes":{"POSITION":12,"TEXCOORD_0":13},"mode":4,"indices":14,"material":0}]},{"primitives":[{"attributes":{"POSITION":15,"TEXCOORD_0":16},"mode":4,"indices":17,"material":0}]}],"materials":[{"pbrMetallicRoughness":{"baseColorFactor":[1,1,1,1],"metallicFactor":0,"roughnessFactor":1,"baseColorTexture":{"index":0,"texCoord":0}},"alphaMode":"OPAQUE"}],"textures":[{"source":0,"sampler":0}],"images":[{"uri":"Material_169_baseColor.png"}],"samplers":[{"magFilter":9729,"wrapS":10497,"wrapT":10497}],"accessors":[{"bufferView":0,"byteOffset":0,"count":1679,"componentType":5126,"type":"VEC3","min":[22.578500747680664,6.1288089752197266,28.559614181518555],"max":[24.290258407592773,13.73671817779541,37.313522338867188]},{"bufferView":1,"byteOffset":0,"count":1679,"componentType":5126,"type":"VEC2"},{"bufferView":2,"byteOffset":0,"count":5910,"componentType":5125,"type":"SCALAR"},{"bufferView":3,"byteOffset":0,"count":18,"componentType":5126,"type":"VEC3","min":[22.998058319091797,10.027353286743164,36.060134887695313],"max":[23.05058479309082,10.325396537780762,36.372348785400391]},{"bufferView":4,"byteOffset":0,"count":18,"componentType":5126,"type":"VEC2"},{"bufferView":5,"byteOffset":0,"count":42,"componentType":5125,"type":"SCALAR"},{"bufferView":6,"byteOffset":0,"count":8,"componentType":5126,"type":"VEC3","min":[23.583070755004883,10.583867073059082,33.02783203125],"max":[23.663385391235352,10.64823055267334,33.09112548828125]},{"bufferView":7,"byteOffset":0,"count":8,"componentType":5126,"type":"VEC2"},{"bufferView":8,"byteOffset":0,"count":12,"componentType":5125,"type":"SCALAR"},{"bufferView":9,"byteOffset":0,"count":7,"componentType":5126,"type":"VEC3","min":[23.583070755004883,9.2173986434936523,33.02783203125],"max":[23.663385391235352,9.2816095352172852,33.09112548828125]},{"bufferView":10,"byteOffset":0,"count":7,"componentType":5126,"type":"VEC2"},{"bufferView":11,"byteOffset":0,"count":12,"componentType":5125,"type":"SCALAR"},{"bufferView":12,"byteOffset":0,"count":10,"componentType":5126,"type":"VEC3","min":[23.011672973632813,9.5464811325073242,36.105293273925781],"max":[23.05058479309082,9.7675619125366211,36.372097015380859]},{"bufferView":13,"byteOffset":0,"count":10,"componentType":5126,"type":"VEC2"},{"bufferView":14,"byteOffset":0,"count":18,"componentType":5125,"type":"SCALAR"},{"bufferView":15,"byteOffset":0,"count":20,"componentType":5126,"type":"VEC3","min":[23.034889221191406,9.8400020599365234,34.587085723876953],"max":[23.062675476074219,10.008607864379883,34.7094612121582]},{"bufferView":16,"byteOffset":0,"count":20,"componentType":5126,"type":"VEC2"},{"bufferView":17,"byteOffset":0,"count":48,"componentType":5125,"type":"SCALAR"}],"bufferViews":[{"buffer":0,"byteOffset":0,"byteLength":20148,"byteStride":12,"target":34962},{"buffer":0,"byteOffset":20148,"byteLength":13432,"byteStride":8,"target":34962},{"buffer":0,"byteOffset":33580,"byteLength":23640,"target":34963},{"buffer":0,"byteOffset":57220,"byteLength":216,"byteStride":12,"target":34962},{"buffer":0,"byteOffset":57436,"byteLength":144,"byteStride":8,"target":34962},{"buffer":0,"byteOffset":57580,"byteLength":168,"target":34963},{"buffer":0,"byteOffset":57748,"byteLength":96,"byteStride":12,"target":34962},{"buffer":0,"byteOffset":57844,"byteLength":64,"byteStride":8,"target":34962},{"buffer":0,"byteOffset":57908,"byteLength":48,"target":34963},{"buffer":0,"byteOffset":57956,"byteLength":84,"byteStride":12,"target":34962},{"buffer":0,"byteOffset":58040,"byteLength":56,"byteStride":8,"target":34962},{"buffer":0,"byteOffset":58096,"byteLength":48,"target":34963},{"buffer":0,"byteOffset":58144,"byteLength":120,"byteStride":12,"target":34962},{"buffer":0,"byteOffset":58264,"byteLength":80,"byteStride":8,"target":34962},{"buffer":0,"byteOffset":58344,"byteLength":72,"target":34963},{"buffer":0,"byteOffset":58416,"byteLength":240,"byteStride":12,"target":34962},{"buffer":0,"byteOffset":58656,"byteLength":160,"byteStride":8,"target":34962},{"buffer":0,"byteOffset":58816,"byteLength":192,"target":34963}],"buffers":[{"byteLength":59008,"uri":"modello.bin"}]}