{"asset":{"generator":"3D Builder","version":"2.0"},"scene":0,"scenes":[{"nodes":[0]}],"nodes":[{"mesh":0,"matrix":[1.7454360723495483,0,0,0,0,-2.0807219414109568E-7,-1.7454358339309692,0,0,1.7454358339309692,-2.0807219414109568E-7,0,9.00735415143572E-7,-1.0429488219235172E-12,-8.74888792168349E-6,1]}],"meshes":[{"primitives":[{"attributes":{"POSITION":0},"mode":4,"indices":10,"material":0},{"attributes":{"POSITION":1},"mode":4,"indices":11,"material":0},{"attributes":{"POSITION":2},"mode":4,"indices":12,"material":0},{"attributes":{"POSITION":3},"mode":4,"indices":13,"material":0},{"attributes":{"POSITION":4},"mode":4,"indices":14,"material":0},{"attributes":{"POSITION":5},"mode":4,"indices":15,"material":0},{"attributes":{"POSITION":6},"mode":4,"indices":16,"material":0},{"attributes":{"POSITION":7},"mode":4,"indices":17,"material":0},{"attributes":{"POSITION":8},"mode":4,"indices":18,"material":0},{"attributes":{"POSITION":9},"mode":4,"indices":19,"material":1}]}],"materials":[{"name":"Material.002","pbrMetallicRoughness":{"baseColorFactor":[0.13370588421821594,0.28069689869880676,0.08395107090473175,1],"metallicFactor":0,"roughnessFactor":0.60000002384185791},"alphaMode":"OPAQUE"},{"name":"Material.001","pbrMetallicRoughness":{"baseColorFactor":[0.15426279604434967,0.03292083740234375,0.03292083740234375,1],"metallicFactor":0,"roughnessFactor":0.60000002384185791},"alphaMode":"OPAQUE"}],"accessors":[{"bufferView":0,"byteOffset":0,"count":161,"componentType":5126,"type":"VEC3","min":[-3.94441819190979,-3.6848866939544678,6.5613312721252441],"max":[4.2987608909606934,3.4522054195404053,8.1259908676147461]},{"bufferView":0,"byteOffset":1932,"count":170,"componentType":5126,"type":"VEC3","min":[-4.2987632751464844,-3.4556007385253906,5.9669208526611328],"max":[3.9485828876495361,3.6848642826080322,6.5719795227050781]},{"bufferView":0,"byteOffset":3972,"count":58,"componentType":5126,"type":"VEC3","min":[-0.60261201858520508,-0.74431407451629639,12.798144340515137],"max":[1.3889411687850952,0.97992622852325439,13.226625442504883]},{"bufferView":0,"byteOffset":4668,"count":128,"componentType":5126,"type":"VEC3","min":[-1.6063904762268066,-1.7499443292617798,11.893566131591797],"max":[2.3508565425872803,1.6711565256118774,12.798144340515137]},{"bufferView":0,"byteOffset":6204,"count":123,"componentType":5126,"type":"VEC3","min":[-1.317848801612854,-2.1478052139282227,11.61553955078125],"max":[2.1092042922973633,0.81948524713516235,11.902097702026367]},{"bufferView":0,"byteOffset":7680,"count":108,"componentType":5126,"type":"VEC3","min":[-2.1737523078918457,-2.004096508026123,10.742507934570313],"max":[1.8499594926834106,1.4795007705688477,11.624402046203613]},{"bufferView":0,"byteOffset":8976,"count":127,"componentType":5126,"type":"VEC3","min":[-2.8501026630401611,-2.9189913272857666,9.40977954864502],"max":[2.9678187370300293,2.1241729259490967,10.742507934570313]},{"bufferView":0,"byteOffset":10500,"count":142,"componentType":5126,"type":"VEC3","min":[-3.2542462348937988,-3.1254608631134033,9.2452383041381836],"max":[3.7688977718353271,2.9541521072387695,9.4279012680053711]},{"bufferView":0,"byteOffset":12204,"count":140,"componentType":5126,"type":"VEC3","min":[-3.938201904296875,-2.4862780570983887,8.1082000732421875],"max":[3.1064350605010986,3.6117863655090332,9.2469577789306641]},{"bufferView":0,"byteOffset":13884,"count":108,"componentType":5126,"type":"VEC3","min":[-1.5989174842834473,-1.9560832977294922,0],"max":[2.1855883598327637,1.754088282585144,9.2452383041381836]},{"bufferView":1,"byteOffset":0,"count":612,"componentType":5125,"type":"SCALAR"},{"bufferView":1,"byteOffset":2448,"count":753,"componentType":5125,"type":"SCALAR"},{"bufferView":1,"byteOffset":5460,"count":216,"componentType":5125,"type":"SCALAR"},{"bufferView":1,"byteOffset":6324,"count":465,"componentType":5125,"type":"SCALAR"},{"bufferView":1,"byteOffset":8184,"count":414,"componentType":5125,"type":"SCALAR"},{"bufferView":1,"byteOffset":9840,"count":351,"componentType":5125,"type":"SCALAR"},{"bufferView":1,"byteOffset":11244,"count":456,"componentType":5125,"type":"SCALAR"},{"bufferView":1,"byteOffset":13068,"count":543,"componentType":5125,"type":"SCALAR"},{"bufferView":1,"byteOffset":15240,"count":510,"componentType":5125,"type":"SCALAR"},{"bufferView":1,"byteOffset":17280,"count":528,"componentType":5125,"type":"SCALAR"}],"bufferViews":[{"buffer":0,"byteOffset":0,"byteLength":15180,"byteStride":12,"target":34962},{"buffer":0,"byteOffset":15180,"byteLength":19392,"target":34963}],"buffers":[{"byteLength":34572,"uri":"tree1.bin"}]}