{"asset":{"generator":"3D Builder","version":"2.0"},"scene":0,"scenes":[{"nodes":[0]}],"nodes":[{"mesh":0,"matrix":[1,0,0,0,0,-1.1920926823449918E-7,-0.9999997615814209,0,0,0.9999997615814209,-1.1920926823449918E-7,0,-1.1437774816158708E-7,10.742803573608398,2.3524042262579314E-5,1]}],"meshes":[{"primitives":[{"attributes":{"POSITION":0,"TEXCOORD_0":1},"mode":4,"indices":2,"material":0}]}],"materials":[{"pbrMetallicRoughness":{"baseColorFactor":[1,1,1,1],"metallicFactor":0,"roughnessFactor":1,"baseColorTexture":{"index":0,"texCoord":0}},"alphaMode":"OPAQUE"}],"textures":[{"source":0,"sampler":0}],"images":[{"uri":"Material_169_baseColor.png"}],"samplers":[{"magFilter":9729,"wrapS":10497,"wrapT":10497}],"accessors":[{"bufferView":0,"byteOffset":0,"count":1004,"componentType":5126,"type":"VEC3","min":[-24.485183715820312,131.37495422363281,-6.2235107421875],"max":[-7.0944671630859375,208.66868591308594,82.712882995605469]},{"bufferView":1,"byteOffset":0,"count":1004,"componentType":5126,"type":"VEC2"},{"bufferView":2,"byteOffset":0,"count":4509,"componentType":5125,"type":"SCALAR"}],"bufferViews":[{"buffer":0,"byteOffset":0,"byteLength":12048,"byteStride":12,"target":34962},{"buffer":0,"byteOffset":12048,"byteLength":8032,"byteStride":8,"target":34962},{"buffer":0,"byteOffset":20080,"byteLength":18036,"target":34963}],"buffers":[{"byteLength":38116,"uri":"scene.bin"}]}