{"asset":{"generator":"3D Builder","version":"2.0"},"scene":0,"scenes":[{"nodes":[0]}],"nodes":[{"children":[1,2,3,4,5,6,7,8,9,10,11,12]},{"mesh":0,"matrix":[1,0,0,0,0,-1.1920928955078125E-7,-0.99999988079071045,0,0,0.99999988079071045,-1.1920928955078125E-7,0,0,0,0,1]},{"mesh":1,"matrix":[1,0,0,0,0,-1.1920928955078125E-7,-0.99999988079071045,0,0,0.99999988079071045,-1.1920928955078125E-7,0,0,0,0,1]},{"mesh":2,"matrix":[1,0,0,0,0,-1.1920928955078125E-7,-0.99999988079071045,0,0,0.99999988079071045,-1.1920928955078125E-7,0,0,0,0,1]},{"mesh":3,"matrix":[1,0,0,0,0,-1.1920928955078125E-7,-0.99999988079071045,0,0,0.99999988079071045,-1.1920928955078125E-7,0,0,0,0,1]},{"mesh":4,"matrix":[1,0,0,0,0,-1.1920928955078125E-7,-0.99999988079071045,0,0,0.99999988079071045,-1.1920928955078125E-7,0,0,0,0,1]},{"mesh":5,"matrix":[1,0,0,0,0,-1.1920928955078125E-7,-0.99999988079071045,0,0,0.99999988079071045,-1.1920928955078125E-7,0,0,0,0,1]},{"mesh":6,"matrix":[1,0,0,0,0,-1.1920928955078125E-7,-0.99999988079071045,0,0,0.99999988079071045,-1.1920928955078125E-7,0,0,0,0,1]},{"mesh":7,"matrix":[1,0,0,0,0,-1.1920928955078125E-7,-0.99999988079071045,0,0,0.99999988079071045,-1.1920928955078125E-7,0,0,0,0,1]},{"mesh":8,"matrix":[1,0,0,0,0,-1.1920928955078125E-7,-0.99999988079071045,0,0,0.99999988079071045,-1.1920928955078125E-7,0,0,0,0,1]},{"mesh":9,"matrix":[1,0,0,0,0,-1.1920928955078125E-7,-0.99999988079071045,0,0,0.99999988079071045,-1.1920928955078125E-7,0,0,0,0,1]},{"mesh":10,"matrix":[1,0,0,0,0,-1.1920928955078125E-7,-0.99999988079071045,0,0,0.99999988079071045,-1.1920928955078125E-7,0,0,0,0,1]},{"mesh":11,"matrix":[1,0,0,0,0,-1.1920928955078125E-7,-0.99999988079071045,0,0,0.99999988079071045,-1.1920928955078125E-7,0,0,0,0,1]}],"meshes":[{"primitives":[{"attributes":{"POSITION":0,"TEXCOORD_0":2},"mode":4,"indices":4,"material":0},{"attributes":{"POSITION":1,"TEXCOORD_0":3},"mode":4,"indices":5,"material":0}]},{"primitives":[{"attributes":{"POSITION":6,"TEXCOORD_0":7},"mode":4,"indices":8,"material":0}]},{"primitives":[{"attributes":{"POSITION":9,"TEXCOORD_0":10},"mode":4,"indices":11,"material":0}]},{"primitives":[{"attributes":{"POSITION":12,"TEXCOORD_0":13},"mode":4,"indices":14,"material":0}]},{"primitives":[{"attributes":{"POSITION":15,"TEXCOORD_0":16},"mode":4,"indices":17,"material":0}]},{"primitives":[{"attributes":{"POSITION":18,"TEXCOORD_0":19},"mode":4,"indices":20,"material":0}]},{"primitives":[{"attributes":{"POSITION":21,"TEXCOORD_0":22},"mode":4,"indices":23,"material":0}]},{"primitives":[{"attributes":{"POSITION":24,"TEXCOORD_0":25},"mode":4,"indices":26,"material":0}]},{"primitives":[{"attributes":{"POSITION":27,"TEXCOORD_0":28},"mode":4,"indices":29,"material":0}]},{"primitives":[{"attributes":{"POSITION":30,"TEXCOORD_0":31},"mode":4,"indices":32,"material":0}]},{"primitives":[{"attributes":{"POSITION":33,"TEXCOORD_0":34},"mode":4,"indices":35,"material":0}]},{"primitives":[{"attributes":{"POSITION":36,"TEXCOORD_0":37},"mode":4,"indices":38,"material":0}]}],"materials":[{"pbrMetallicRoughness":{"baseColorFactor":[1,1,1,1],"metallicFactor":0,"roughnessFactor":1,"baseColorTexture":{"index":0,"texCoord":0}},"alphaMode":"OPAQUE"}],"textures":[{"source":0,"sampler":0}],"images":[{"uri":"bindind3mesh2_baseColor.jpeg"}],"samplers":[{"magFilter":9729,"wrapS":10497,"wrapT":10497}],"accessors":[{"bufferView":0,"byteOffset":0,"count":72666,"componentType":5126,"type":"VEC3","min":[-0.30592983961105347,-0.34859773516654968,-4.2044119921702539E-12],"max":[0.3061593770980835,0.34858149290084839,0.21904961764812469]},{"bufferView":0,"byteOffset":871992,"count":11350,"componentType":5126,"type":"VEC3","min":[-0.30618384480476379,-0.34346693754196167,-4.2044119921702539E-12],"max":[0.28756657242774963,0.34858149290084839,0.18907760083675385]},{"bufferView":1,"byteOffset":0,"count":72666,"componentType":5126,"type":"VEC2"},{"bufferView":1,"byteOffset":581328,"count":11350,"componentType":5126,"type":"VEC2"},{"bufferView":2,"byteOffset":0,"count":357024,"componentType":5125,"type":"SCALAR"},{"bufferView":2,"byteOffset":1428096,"count":48318,"componentType":5125,"type":"SCALAR"},{"bufferView":3,"byteOffset":0,"count":221,"componentType":5126,"type":"VEC3","min":[-0.095973454415798187,-0.11014252156019211,0.19344639778137207],"max":[-0.018147850409150124,-0.015857728198170662,0.20970241725444794]},{"bufferView":4,"byteOffset":0,"count":221,"componentType":5126,"type":"VEC2"},{"bufferView":5,"byteOffset":0,"count":840,"componentType":5125,"type":"SCALAR"},{"bufferView":6,"byteOffset":0,"count":24,"componentType":5126,"type":"VEC3","min":[-0.060261048376560211,0.25002947449684143,0.16184879839420319],"max":[-0.037096232175827026,0.28111910820007324,0.1642363965511322]},{"bufferView":7,"byteOffset":0,"count":24,"componentType":5126,"type":"VEC2"},{"bufferView":8,"byteOffset":0,"count":66,"componentType":5125,"type":"SCALAR"},{"bufferView":9,"byteOffset":0,"count":73,"componentType":5126,"type":"VEC3","min":[-0.17471344769001007,0.0087802782654762268,0.15773400664329529],"max":[-0.14778944849967957,0.021378684788942337,0.16479520499706268]},{"bufferView":10,"byteOffset":0,"count":73,"componentType":5126,"type":"VEC2"},{"bufferView":11,"byteOffset":0,"count":282,"componentType":5125,"type":"SCALAR"},{"bufferView":12,"byteOffset":0,"count":56,"componentType":5126,"type":"VEC3","min":[-0.28545746207237244,0.24515269696712494,0.12405360490083694],"max":[-0.25863504409790039,0.29077106714248657,0.13959839940071106]},{"bufferView":13,"byteOffset":0,"count":56,"componentType":5126,"type":"VEC2"},{"bufferView":14,"byteOffset":0,"count":156,"componentType":5125,"type":"SCALAR"},{"bufferView":15,"byteOffset":0,"count":45,"componentType":5126,"type":"VEC3","min":[-0.29764944314956665,0.15234106779098511,0.1062735989689827],"max":[-0.28256183862686157,0.17631867527961731,0.12334240972995758]},{"bufferView":16,"byteOffset":0,"count":45,"componentType":5126,"type":"VEC2"},{"bufferView":17,"byteOffset":0,"count":138,"componentType":5125,"type":"SCALAR"},{"bufferView":18,"byteOffset":0,"count":12,"componentType":5126,"type":"VEC3","min":[-0.11537903547286987,0.30011826753616333,0.162661612033844],"max":[-0.0975482389330864,0.3144439160823822,0.16413480043411255]},{"bufferView":19,"byteOffset":0,"count":12,"componentType":5126,"type":"VEC2"},{"bufferView":20,"byteOffset":0,"count":24,"componentType":5125,"type":"SCALAR"},{"bufferView":21,"byteOffset":0,"count":62,"componentType":5126,"type":"VEC3","min":[-0.20229785144329071,0.24835307896137238,0.15113000571727753],"max":[-0.16744904220104218,0.29000911116600037,0.15656560659408569]},{"bufferView":22,"byteOffset":0,"count":62,"componentType":5126,"type":"VEC2"},{"bufferView":23,"byteOffset":0,"count":222,"componentType":5125,"type":"SCALAR"},{"bufferView":24,"byteOffset":0,"count":21,"componentType":5126,"type":"VEC3","min":[-0.082917854189872742,0.0059862867929041386,0.19751040637493134],"max":[-0.055841431021690369,0.024477478116750717,0.2029460072517395]},{"bufferView":25,"byteOffset":0,"count":21,"componentType":5126,"type":"VEC2"},{"bufferView":26,"byteOffset":0,"count":54,"componentType":5125,"type":"SCALAR"},{"bufferView":27,"byteOffset":0,"count":23,"componentType":5126,"type":"VEC3","min":[-0.12345624715089798,0.020870674401521683,0.19014440476894379],"max":[-0.0975482389330864,0.036567874252796173,0.19659599661827087]},{"bufferView":28,"byteOffset":0,"count":23,"componentType":5126,"type":"VEC2"},{"bufferView":29,"byteOffset":0,"count":54,"componentType":5125,"type":"SCALAR"},{"bufferView":30,"byteOffset":0,"count":21,"componentType":5126,"type":"VEC3","min":[-0.15947343409061432,0.23397667706012726,0.15646401047706604],"max":[-0.13930584490299225,0.25455066561698914,0.15880081057548523]},{"bufferView":31,"byteOffset":0,"count":21,"componentType":5126,"type":"VEC2"},{"bufferView":32,"byteOffset":0,"count":60,"componentType":5125,"type":"SCALAR"},{"bufferView":33,"byteOffset":0,"count":9,"componentType":5126,"type":"VEC3","min":[0.22741937637329102,-0.18608853220939636,0.1569720059633255],"max":[0.2397637814283371,-0.17282971739768982,0.16449040174484253]},{"bufferView":34,"byteOffset":0,"count":9,"componentType":5126,"type":"VEC2"},{"bufferView":35,"byteOffset":0,"count":18,"componentType":5125,"type":"SCALAR"}],"bufferViews":[{"buffer":0,"byteOffset":0,"byteLength":1008192,"byteStride":12,"target":34962},{"buffer":0,"byteOffset":1008192,"byteLength":672128,"byteStride":8,"target":34962},{"buffer":0,"byteOffset":1680320,"byteLength":1621368,"target":34963},{"buffer":0,"byteOffset":3301688,"byteLength":2652,"byteStride":12,"target":34962},{"buffer":0,"byteOffset":3304340,"byteLength":1768,"byteStride":8,"target":34962},{"buffer":0,"byteOffset":3306108,"byteLength":3360,"target":34963},{"buffer":0,"byteOffset":3309468,"byteLength":288,"byteStride":12,"target":34962},{"buffer":0,"byteOffset":3309756,"byteLength":192,"byteStride":8,"target":34962},{"buffer":0,"byteOffset":3309948,"byteLength":264,"target":34963},{"buffer":0,"byteOffset":3310212,"byteLength":876,"byteStride":12,"target":34962},{"buffer":0,"byteOffset":3311088,"byteLength":584,"byteStride":8,"target":34962},{"buffer":0,"byteOffset":3311672,"byteLength":1128,"target":34963},{"buffer":0,"byteOffset":3312800,"byteLength":672,"byteStride":12,"target":34962},{"buffer":0,"byteOffset":3313472,"byteLength":448,"byteStride":8,"target":34962},{"buffer":0,"byteOffset":3313920,"byteLength":624,"target":34963},{"buffer":0,"byteOffset":3314544,"byteLength":540,"byteStride":12,"target":34962},{"buffer":0,"byteOffset":3315084,"byteLength":360,"byteStride":8,"target":34962},{"buffer":0,"byteOffset":3315444,"byteLength":552,"target":34963},{"buffer":0,"byteOffset":3315996,"byteLength":144,"byteStride":12,"target":34962},{"buffer":0,"byteOffset":3316140,"byteLength":96,"byteStride":8,"target":34962},{"buffer":0,"byteOffset":3316236,"byteLength":96,"target":34963},{"buffer":0,"byteOffset":3316332,"byteLength":744,"byteStride":12,"target":34962},{"buffer":0,"byteOffset":3317076,"byteLength":496,"byteStride":8,"target":34962},{"buffer":0,"byteOffset":3317572,"byteLength":888,"target":34963},{"buffer":0,"byteOffset":3318460,"byteLength":252,"byteStride":12,"target":34962},{"buffer":0,"byteOffset":3318712,"byteLength":168,"byteStride":8,"target":34962},{"buffer":0,"byteOffset":3318880,"byteLength":216,"target":34963},{"buffer":0,"byteOffset":3319096,"byteLength":276,"byteStride":12,"target":34962},{"buffer":0,"byteOffset":3319372,"byteLength":184,"byteStride":8,"target":34962},{"buffer":0,"byteOffset":3319556,"byteLength":216,"target":34963},{"buffer":0,"byteOffset":3319772,"byteLength":252,"byteStride":12,"target":34962},{"buffer":0,"byteOffset":3320024,"byteLength":168,"byteStride":8,"target":34962},{"buffer":0,"byteOffset":3320192,"byteLength":240,"target":34963},{"buffer":0,"byteOffset":3320432,"byteLength":108,"byteStride":12,"target":34962},{"buffer":0,"byteOffset":3320540,"byteLength":72,"byteStride":8,"target":34962},{"buffer":0,"byteOffset":3320612,"byteLength":72,"target":34963}],"buffers":[{"byteLength":3320684,"uri":"scene.bin"}]}